<svg xmlns="http://www.w3.org/2000/svg" viewBox="0 0 1096.38 384" width="1096.38" height="384" role="img" aria-label="BlueTec">
<g transform="translate(42 42) scale(1.59) translate(-108.2 -331.1)"><path fill="#FFFFFF" fill-rule="nonzero" d="M 202.34375 474.585938 C 176.980469 474.585938 156.097656 455.449219 153.3125 430.835938 L 174.6875 430.835938 C 177.289062 443.730469 188.679688 453.441406 202.34375 453.441406 C 216.003906 453.441406 227.398438 443.730469 230 430.835938 L 251.371094 430.835938 C 248.585938 455.449219 227.703125 474.585938 202.34375 474.585938 M 202.34375 331.132812 C 192.511719 331.132812 183.035156 332.648438 174.125 335.445312 L 174.125 384.742188 C 182.125 379.15625 191.847656 375.871094 202.34375 375.871094 C 227.707031 375.871094 248.589844 395.003906 251.371094 419.625 L 230 419.625 C 227.398438 406.722656 216.003906 397.011719 202.34375 397.011719 C 188.679688 397.011719 177.285156 406.722656 174.6875 419.625 L 152.988281 419.625 L 152.988281 345.117188 C 126.144531 361.691406 108.25 391.363281 108.25 425.226562 C 108.25 477.191406 150.375 519.320312 202.34375 519.320312 C 254.308594 519.320312 296.433594 477.191406 296.433594 425.226562 C 296.433594 373.261719 254.308594 331.132812 202.34375 331.132812 "></path></g>
<g fill="#FFFFFF" transform="translate(414.66 256.62) scale(0.18 -0.18)"><path d="M205 0L205 133L353 133Q395 133 419.5 156.5Q444 180 444 218Q444 243 433 262.5Q422 282 401.5 292.5Q381 303 353 303L205 303L205 432L342 432Q377 432 399.5 449.5Q422 467 422 504Q422 541 399.5 558.5Q377 576 342 576L205 576L205 709L385 709Q451 709 499.5 684Q548 659 574 617Q600 575 600 522Q600 451 551.5 404.5Q503 358 411 347L411 407Q513 395 567 341.5Q621 288 621 207Q621 147 591 100.5Q561 54 506.5 27Q452 0 378 0L205 0ZM63 0L63 709L239 709L239 0L63 0Z" transform="translate(0 0)"></path><path d="M51 0L51 729L225 729L225 0L51 0Z" transform="translate(622 0)"></path><path d="M275 -11Q206 -11 152.5 16.5Q99 44 68.5 93.5Q38 143 38 206L38 489L212 489L212 206Q212 186 220 171Q228 156 242 148Q256 140 275 140Q303 140 320.5 158Q338 176 338 206L338 489L512 489L512 206Q512 142 482 93Q452 44 398.5 16.5Q345 -11 275 -11Z" transform="translate(870 0)"></path><path d="M298 -11Q216 -11 153 21.5Q90 54 54 112Q18 170 18 245Q18 319 53 376.5Q88 434 148.5 467.5Q209 501 285 501Q359 501 416.5 469.5Q474 438 506.5 382.5Q539 327 539 256Q539 241 537.5 225.5Q536 210 531 190L100 188L100 300L462 303L384 254Q383 295 372 321.5Q361 348 340 362Q319 376 287 376Q254 376 230 360Q206 344 193 315Q180 286 180 245Q180 203 194 173.5Q208 144 234 129Q260 114 298 114Q334 114 361.5 126Q389 138 411 163L502 72Q466 31 414.5 10Q363 -11 298 -11Z" transform="translate(1392 0)"></path><path d="M235 0L235 704L414 704L414 0L235 0ZM18 555L18 709L631 709L631 555L18 555Z" transform="translate(1918 0)"></path><path d="M298 -11Q216 -11 153 21.5Q90 54 54 112Q18 170 18 245Q18 319 53 376.5Q88 434 148.5 467.5Q209 501 285 501Q359 501 416.5 469.5Q474 438 506.5 382.5Q539 327 539 256Q539 241 537.5 225.5Q536 210 531 190L100 188L100 300L462 303L384 254Q383 295 372 321.5Q361 348 340 362Q319 376 287 376Q254 376 230 360Q206 344 193 315Q180 286 180 245Q180 203 194 173.5Q208 144 234 129Q260 114 298 114Q334 114 361.5 126Q389 138 411 163L502 72Q466 31 414.5 10Q363 -11 298 -11Z" transform="translate(2539 0)"></path><path d="M293 -11Q215 -11 152.5 22Q90 55 54 113Q18 171 18 244Q18 318 54.5 376Q91 434 153.5 467.5Q216 501 295 501Q352 501 399 482Q446 463 485 425L375 315Q360 330 340.5 337.5Q321 345 295 345Q267 345 244.5 332.5Q222 320 208.5 298Q195 276 195 245Q195 215 208.5 192.5Q222 170 244.5 157Q267 144 295 144Q323 144 343 153Q363 162 378 179L489 69Q448 29 400.5 9Q353 -11 293 -11Z" transform="translate(3065 0)"></path></g>
</svg>