<svg xmlns="http://www.w3.org/2000/svg" viewBox="0 0 659.2 570.5" width="659" height="571" role="img" aria-label="BlueTec"><g transform="translate(179.6 42) scale(1.594049) translate(-108.2 -331.1)"><path fill="#0077C8" fill-rule="nonzero" d="M 202.34375 474.585938 C 176.980469 474.585938 156.097656 455.449219 153.3125 430.835938 L 174.6875 430.835938 C 177.289062 443.730469 188.679688 453.441406 202.34375 453.441406 C 216.003906 453.441406 227.398438 443.730469 230 430.835938 L 251.371094 430.835938 C 248.585938 455.449219 227.703125 474.585938 202.34375 474.585938 M 202.34375 331.132812 C 192.511719 331.132812 183.035156 332.648438 174.125 335.445312 L 174.125 384.742188 C 182.125 379.15625 191.847656 375.871094 202.34375 375.871094 C 227.707031 375.871094 248.589844 395.003906 251.371094 419.625 L 230 419.625 C 227.398438 406.722656 216.003906 397.011719 202.34375 397.011719 C 188.679688 397.011719 177.285156 406.722656 174.6875 419.625 L 152.988281 419.625 L 152.988281 345.117188 C 126.144531 361.691406 108.25 391.363281 108.25 425.226562 C 108.25 477.191406 150.375 519.320312 202.34375 519.320312 C 254.308594 519.320312 296.433594 477.191406 296.433594 425.226562 C 296.433594 373.261719 254.308594 331.132812 202.34375 331.132812 "></path></g><g fill="#0A1628" transform="translate(101.7 479.9) scale(0.126 -0.126)"><path d="M205 0L205 133L353 133Q395 133 419.5 156.5Q444 180 444 218Q444 243 433 262.5Q422 282 401.5 292.5Q381 303 353 303L205 303L205 432L342 432Q377 432 399.5 449.5Q422 467 422 504Q422 541 399.5 558.5Q377 576 342 576L205 576L205 709L385 709Q451 709 499.5 684Q548 659 574 617Q600 575 600 522Q600 451 551.5 404.5Q503 358 411 347L411 407Q513 395 567 341.5Q621 288 621 207Q621 147 591 100.5Q561 54 506.5 27Q452 0 378 0L205 0ZM63 0L63 709L239 709L239 0L63 0ZM673 0L673 729L847 729L847 0L673 0ZM1145 -11Q1076 -11 1022.5 16.5Q969 44 938.5 93.5Q908 143 908 206L908 489L1082 489L1082 206Q1082 186 1090 171Q1098 156 1112 148Q1126 140 1145 140Q1173 140 1190.5 158Q1208 176 1208 206L1208 489L1382 489L1382 206Q1382 142 1352 93Q1322 44 1268.5 16.5Q1215 -11 1145 -11ZM1690 -11Q1608 -11 1545 21.5Q1482 54 1446 112Q1410 170 1410 245Q1410 319 1445 376.5Q1480 434 1540.5 467.5Q1601 501 1677 501Q1751 501 1808.5 469.5Q1866 438 1898.5 382.5Q1931 327 1931 256Q1931 241 1929.5 225.5Q1928 210 1923 190L1492 188L1492 300L1854 303L1776 254Q1775 295 1764 321.5Q1753 348 1732 362Q1711 376 1679 376Q1646 376 1622 360Q1598 344 1585 315Q1572 286 1572 245Q1572 203 1586 173.5Q1600 144 1626 129Q1652 114 1690 114Q1726 114 1753.5 126Q1781 138 1803 163L1894 72Q1858 31 1806.5 10Q1755 -11 1690 -11ZM2153 0L2153 704L2332 704L2332 0L2153 0ZM1936 555L1936 709L2549 709L2549 555L1936 555ZM2837 -11Q2755 -11 2692 21.5Q2629 54 2593 112Q2557 170 2557 245Q2557 319 2592 376.5Q2627 434 2687.5 467.5Q2748 501 2824 501Q2898 501 2955.5 469.5Q3013 438 3045.5 382.5Q3078 327 3078 256Q3078 241 3076.5 225.5Q3075 210 3070 190L2639 188L2639 300L3001 303L2923 254Q2922 295 2911 321.5Q2900 348 2879 362Q2858 376 2826 376Q2793 376 2769 360Q2745 344 2732 315Q2719 286 2719 245Q2719 203 2733 173.5Q2747 144 2773 129Q2799 114 2837 114Q2873 114 2900.5 126Q2928 138 2950 163L3041 72Q3005 31 2953.5 10Q2902 -11 2837 -11ZM3358 -11Q3280 -11 3217.5 22Q3155 55 3119 113Q3083 171 3083 244Q3083 318 3119.5 376Q3156 434 3218.5 467.5Q3281 501 3360 501Q3417 501 3464 482Q3511 463 3550 425L3440 315Q3425 330 3405.5 337.5Q3386 345 3360 345Q3332 345 3309.5 332.5Q3287 320 3273.5 298Q3260 276 3260 245Q3260 215 3273.5 192.5Q3287 170 3309.5 157Q3332 144 3360 144Q3388 144 3408 153Q3428 162 3443 179L3554 69Q3513 29 3465.5 9Q3418 -11 3358 -11Z"></path></g><g fill="#0077C8" transform="translate(41.4 528.2) scale(0.0255 -0.0255)"><path d="M246 0L246 688L383 688L383 0L246 0ZM22 582L22 703L607 703L607 582L22 582ZM1041 0L1041 703L1177 703L1177 0L1041 0ZM1141 0L1141 120L1530 120L1530 0L1141 0ZM1141 301L1141 417L1495 417L1495 301L1141 301ZM1141 583L1141 703L1525 703L1525 583L1141 583ZM2408 0L2103 367L2400 703L2570 703L2239 338L2239 401L2581 0L2408 0ZM1983 0L1983 703L2119 703L2119 0L1983 0ZM3011 0L3011 703L3106 703L3147 567L3147 0L3011 0ZM3497 0L3080 540L3106 703L3523 163L3497 0ZM3497 0L3458 132L3458 703L3595 703L3595 0L3497 0ZM4407 -11Q4330 -11 4263.5 17Q4197 45 4147.5 94.5Q4098 144 4070 210.5Q4042 277 4042 353Q4042 429 4069.5 494.5Q4097 560 4146.5 609.5Q4196 659 4262 686.5Q4328 714 4405 714Q4483 714 4549 686.5Q4615 659 4664.5 609.5Q4714 560 4742 494Q4770 428 4770 352Q4770 276 4742 210Q4714 144 4664.5 94.5Q4615 45 4549.5 17Q4484 -11 4407 -11ZM4405 116Q4473 116 4523 146Q4573 176 4601.5 229Q4630 282 4630 353Q4630 405 4614 448Q4598 491 4568 522.5Q4538 554 4497 571Q4456 588 4405 588Q4339 588 4288.5 558.5Q4238 529 4209.5 476Q4181 423 4181 353Q4181 300 4197.5 256Q4214 212 4243.5 181Q4273 150 4314.5 133Q4356 116 4405 116ZM5218 0L5218 703L5354 703L5354 0L5218 0ZM5318 0L5318 121L5676 121L5676 0L5318 0ZM6443 -11Q6366 -11 6299.5 17Q6233 45 6183.5 94.5Q6134 144 6106 210.5Q6078 277 6078 353Q6078 429 6105.5 494.5Q6133 560 6182.5 609.5Q6232 659 6298 686.5Q6364 714 6441 714Q6519 714 6585 686.5Q6651 659 6700.5 609.5Q6750 560 6778 494Q6806 428 6806 352Q6806 276 6778 210Q6750 144 6700.5 94.5Q6651 45 6585.5 17Q6520 -11 6443 -11ZM6441 116Q6509 116 6559 146Q6609 176 6637.5 229Q6666 282 6666 353Q6666 405 6650 448Q6634 491 6604 522.5Q6574 554 6533 571Q6492 588 6441 588Q6375 588 6324.5 558.5Q6274 529 6245.5 476Q6217 423 6217 353Q6217 300 6233.5 256Q6250 212 6279.5 181Q6309 150 6350.5 133Q6392 116 6441 116ZM7579 -10Q7504 -10 7438.5 17.5Q7373 45 7323.5 95Q7274 145 7246.5 210.5Q7219 276 7219 352Q7219 429 7247 494.5Q7275 560 7325 609.5Q7375 659 7442 686.5Q7509 714 7587 714Q7674 714 7747 681.5Q7820 649 7868 590L7776 498Q7743 541 7694 564Q7645 587 7586 587Q7519 587 7467.5 557.5Q7416 528 7387 475.5Q7358 423 7358 353Q7358 283 7386.5 229.5Q7415 176 7464.5 146Q7514 116 7578 116Q7644 116 7691 140.5Q7738 165 7763 212.5Q7788 260 7788 329L7877 268L7570 271L7570 389L7928 389L7928 370Q7928 244 7883 159.5Q7838 75 7759.5 32.5Q7681 -10 7579 -10ZM8372 0L8372 703L8508 703L8508 0L8372 0ZM9538 286Q9502 286 9479 310Q9456 334 9456 369Q9456 404 9479 428Q9502 452 9538 452Q9573 452 9596 428Q9619 404 9619 369Q9619 334 9596 310Q9573 286 9538 286ZM10566 0L10566 703L10702 703L10702 0L10566 0ZM10666 0L10666 120L11055 120L11055 0L10666 0ZM10666 301L10666 417L11020 417L11020 301L10666 301ZM10666 583L10666 703L11050 703L11050 583L10666 583ZM11508 0L11508 703L11603 703L11644 567L11644 0L11508 0ZM11994 0L11577 540L11603 703L12020 163L11994 0ZM11994 0L11955 132L11955 703L12092 703L12092 0L11994 0ZM12575 0L12575 703L12711 703L12711 0L12575 0ZM12675 0L12675 120L13064 120L13064 0L12675 0ZM12675 301L12675 417L13029 417L13029 301L12675 301ZM12675 583L12675 703L13059 703L13059 583L12675 583ZM13617 294L13617 400L13780 400Q13830 400 13857.5 425.5Q13885 451 13885 496Q13885 537 13857.5 564.5Q13830 592 13780 592L13617 592L13617 703L13792 703Q13860 703 13911.5 676.5Q13963 650 13991.5 604Q14020 558 14020 498Q14020 436 13991.5 390.5Q13963 345 13911 319.5Q13859 294 13790 294L13617 294ZM13517 0L13517 703L13653 703L13653 0L13517 0ZM13901 0L13669 304L13794 343L14066 0L13901 0ZM14822 -10Q14747 -10 14681.5 17.5Q14616 45 14566.5 95Q14517 145 14489.5 210.5Q14462 276 14462 352Q14462 429 14490 494.5Q14518 560 14568 609.5Q14618 659 14685 686.5Q14752 714 14830 714Q14917 714 14990 681.5Q15063 649 15111 590L15019 498Q14986 541 14937 564Q14888 587 14829 587Q14762 587 14710.5 557.5Q14659 528 14630 475.5Q14601 423 14601 353Q14601 283 14629.5 229.5Q14658 176 14707.5 146Q14757 116 14821 116Q14887 116 14934 140.5Q14981 165 15006 212.5Q15031 260 15031 329L15120 268L14813 271L14813 389L15171 389L15171 370Q15171 244 15126 159.5Q15081 75 15002.5 32.5Q14924 -10 14822 -10ZM15615 0L15615 703L15751 703L15751 0L15615 0ZM17216 0L16888 360Q16851 401 16833 438.5Q16815 476 16815 521Q16815 574 16841.5 618Q16868 662 16914.5 688Q16961 714 17021 714Q17068 714 17105 699.5Q17142 685 17169.5 662Q17197 639 17214 613L17124 529Q17103 558 17079 574.5Q17055 591 17023 591Q16989 591 16966 571Q16943 551 16943 521Q16943 493 16955 473.5Q16967 454 16988 429L17371 0L17216 0ZM16981 -10Q16909 -10 16855.5 18Q16802 46 16772.5 94.5Q16743 143 16743 205Q16743 269 16777.5 320Q16812 371 16880 403L16939 319Q16905 303 16887.5 276.5Q16870 250 16870 211Q16870 181 16884 158.5Q16898 136 16924 123.5Q16950 111 16984 111Q17027 111 17056 129Q17085 147 17102 175L17190 79Q17170 55 17138 35Q17106 15 17066 2.5Q17026 -10 16981 -10ZM18325 0L18325 703L18421 703L18706 247L18651 247L18935 703L19031 703L19031 0L18896 0L18896 470L18922 462L18724 144L18632 144L18434 462L18461 470L18461 0L18325 0ZM19515 0L19515 703L19651 703L19651 0L19515 0ZM20135 0L20135 703L20271 703L20271 0L20135 0ZM20235 0L20235 121L20593 121L20593 0L20235 0ZM21171 -10Q21107 -10 21058.5 14.5Q21010 39 20978 81L21070 169Q21088 143 21113.5 129.5Q21139 116 21170 116Q21201 116 21224.5 129Q21248 142 21260.5 167Q21273 192 21273 228L21273 703L21410 703L21410 236Q21410 162 21380.5 106.5Q21351 51 21297.5 20.5Q21244 -10 21171 -10ZM22491 718L22578 631L21933 -15L21846 73L22491 718ZM22213 -11Q22136 -11 22069.5 17Q22003 45 21953.5 94.5Q21904 144 21876 210.5Q21848 277 21848 353Q21848 429 21875.5 494.5Q21903 560 21952.5 609.5Q22002 659 22068 686.5Q22134 714 22211 714Q22289 714 22355 686.5Q22421 659 22470.5 609.5Q22520 560 22548 494Q22576 428 22576 352Q22576 276 22548 210Q22520 144 22470.5 94.5Q22421 45 22355.5 17Q22290 -11 22213 -11ZM22211 116Q22279 116 22329 146Q22379 176 22407.5 229Q22436 282 22436 353Q22436 405 22420 448Q22404 491 22374 522.5Q22344 554 22303 571Q22262 588 22211 588Q22145 588 22094.5 558.5Q22044 529 22015.5 476Q21987 423 21987 353Q21987 300 22003.5 256Q22020 212 22049.5 181Q22079 150 22120.5 133Q22162 116 22211 116Z"></path></g></svg>