<svg xmlns="http://www.w3.org/2000/svg" viewBox="0 0 523.9 523.2" width="524" height="523" role="img" aria-label="BlueTec"><g transform="translate(111.9 42) scale(1.594049) translate(-108.2 -331.1)"><path fill="#0077C8" fill-rule="nonzero" d="M 202.34375 474.585938 C 176.980469 474.585938 156.097656 455.449219 153.3125 430.835938 L 174.6875 430.835938 C 177.289062 443.730469 188.679688 453.441406 202.34375 453.441406 C 216.003906 453.441406 227.398438 443.730469 230 430.835938 L 251.371094 430.835938 C 248.585938 455.449219 227.703125 474.585938 202.34375 474.585938 M 202.34375 331.132812 C 192.511719 331.132812 183.035156 332.648438 174.125 335.445312 L 174.125 384.742188 C 182.125 379.15625 191.847656 375.871094 202.34375 375.871094 C 227.707031 375.871094 248.589844 395.003906 251.371094 419.625 L 230 419.625 C 227.398438 406.722656 216.003906 397.011719 202.34375 397.011719 C 188.679688 397.011719 177.285156 406.722656 174.6875 419.625 L 152.988281 419.625 L 152.988281 345.117188 C 126.144531 361.691406 108.25 391.363281 108.25 425.226562 C 108.25 477.191406 150.375 519.320312 202.34375 519.320312 C 254.308594 519.320312 296.433594 477.191406 296.433594 425.226562 C 296.433594 373.261719 254.308594 331.132812 202.34375 331.132812 "></path></g><g fill="#0A1628" transform="translate(34.1 479.9) scale(0.126 -0.126)"><path d="M205 0L205 133L353 133Q395 133 419.5 156.5Q444 180 444 218Q444 243 433 262.5Q422 282 401.5 292.5Q381 303 353 303L205 303L205 432L342 432Q377 432 399.5 449.5Q422 467 422 504Q422 541 399.5 558.5Q377 576 342 576L205 576L205 709L385 709Q451 709 499.5 684Q548 659 574 617Q600 575 600 522Q600 451 551.5 404.5Q503 358 411 347L411 407Q513 395 567 341.5Q621 288 621 207Q621 147 591 100.5Q561 54 506.5 27Q452 0 378 0L205 0ZM63 0L63 709L239 709L239 0L63 0ZM673 0L673 729L847 729L847 0L673 0ZM1145 -11Q1076 -11 1022.5 16.5Q969 44 938.5 93.5Q908 143 908 206L908 489L1082 489L1082 206Q1082 186 1090 171Q1098 156 1112 148Q1126 140 1145 140Q1173 140 1190.5 158Q1208 176 1208 206L1208 489L1382 489L1382 206Q1382 142 1352 93Q1322 44 1268.5 16.5Q1215 -11 1145 -11ZM1690 -11Q1608 -11 1545 21.5Q1482 54 1446 112Q1410 170 1410 245Q1410 319 1445 376.5Q1480 434 1540.5 467.5Q1601 501 1677 501Q1751 501 1808.5 469.5Q1866 438 1898.5 382.5Q1931 327 1931 256Q1931 241 1929.5 225.5Q1928 210 1923 190L1492 188L1492 300L1854 303L1776 254Q1775 295 1764 321.5Q1753 348 1732 362Q1711 376 1679 376Q1646 376 1622 360Q1598 344 1585 315Q1572 286 1572 245Q1572 203 1586 173.5Q1600 144 1626 129Q1652 114 1690 114Q1726 114 1753.5 126Q1781 138 1803 163L1894 72Q1858 31 1806.5 10Q1755 -11 1690 -11ZM2153 0L2153 704L2332 704L2332 0L2153 0ZM1936 555L1936 709L2549 709L2549 555L1936 555ZM2837 -11Q2755 -11 2692 21.5Q2629 54 2593 112Q2557 170 2557 245Q2557 319 2592 376.5Q2627 434 2687.5 467.5Q2748 501 2824 501Q2898 501 2955.5 469.5Q3013 438 3045.5 382.5Q3078 327 3078 256Q3078 241 3076.5 225.5Q3075 210 3070 190L2639 188L2639 300L3001 303L2923 254Q2922 295 2911 321.5Q2900 348 2879 362Q2858 376 2826 376Q2793 376 2769 360Q2745 344 2732 315Q2719 286 2719 245Q2719 203 2733 173.5Q2747 144 2773 129Q2799 114 2837 114Q2873 114 2900.5 126Q2928 138 2950 163L3041 72Q3005 31 2953.5 10Q2902 -11 2837 -11ZM3358 -11Q3280 -11 3217.5 22Q3155 55 3119 113Q3083 171 3083 244Q3083 318 3119.5 376Q3156 434 3218.5 467.5Q3281 501 3360 501Q3417 501 3464 482Q3511 463 3550 425L3440 315Q3425 330 3405.5 337.5Q3386 345 3360 345Q3332 345 3309.5 332.5Q3287 320 3273.5 298Q3260 276 3260 245Q3260 215 3273.5 192.5Q3287 170 3309.5 157Q3332 144 3360 144Q3388 144 3408 153Q3428 162 3443 179L3554 69Q3513 29 3465.5 9Q3418 -11 3358 -11Z"></path></g></svg>