<svg xmlns="http://www.w3.org/2000/svg" viewBox="108.2 331.1 188.2 188.2" width="512" height="512" role="img" aria-label="BlueTec emblem">
  <path fill="#0A1628" fill-rule="nonzero" d="M 202.34375 474.585938 C 176.980469 474.585938 156.097656 455.449219 153.3125 430.835938 L 174.6875 430.835938 C 177.289062 443.730469 188.679688 453.441406 202.34375 453.441406 C 216.003906 453.441406 227.398438 443.730469 230 430.835938 L 251.371094 430.835938 C 248.585938 455.449219 227.703125 474.585938 202.34375 474.585938 M 202.34375 331.132812 C 192.511719 331.132812 183.035156 332.648438 174.125 335.445312 L 174.125 384.742188 C 182.125 379.15625 191.847656 375.871094 202.34375 375.871094 C 227.707031 375.871094 248.589844 395.003906 251.371094 419.625 L 230 419.625 C 227.398438 406.722656 216.003906 397.011719 202.34375 397.011719 C 188.679688 397.011719 177.285156 406.722656 174.6875 419.625 L 152.988281 419.625 L 152.988281 345.117188 C 126.144531 361.691406 108.25 391.363281 108.25 425.226562 C 108.25 477.191406 150.375 519.320312 202.34375 519.320312 C 254.308594 519.320312 296.433594 477.191406 296.433594 425.226562 C 296.433594 373.261719 254.308594 331.132812 202.34375 331.132812 "></path>
</svg>